<?xml version="1.0" encoding="utf-8"?>
<!-- Generator: Adobe Illustrator 24.2.1, SVG Export Plug-In . SVG Version: 6.00 Build 0)  -->
<svg version="1.1" xmlns="http://www.w3.org/2000/svg" xmlns:xlink="http://www.w3.org/1999/xlink" x="0px" y="0px"
	 viewBox="0 0 240 54" style="enable-background:new 0 0 240 54;" xml:space="preserve">
<style type="text/css">
	.st0{fill:none;}
	.st1{fill:#221714;}
	.st2{fill:#915940;}
	.st3{fill:#FFFFFF;}
	.st4{fill:#E9A2C3;}
	.st5{fill:#231815;}
</style>
<g id="圖層_2">
	<g>
		<rect class="st0" width="240" height="54"/>
	</g>
</g>
<g id="圖層_1">
	<g>
		<rect y="9.67" class="st0" width="3.17" height="3.17"/>
		<rect x="3.17" y="9.67" class="st0" width="3.17" height="3.17"/>
		<rect x="6.33" y="9.67" class="st0" width="3.17" height="3.17"/>
		<rect x="9.5" y="9.67" class="st0" width="3.17" height="3.17"/>
		<rect x="12.67" y="9.67" class="st0" width="3.17" height="3.17"/>
		<rect x="15.83" y="9.67" class="st1" width="22.17" height="3.17"/>
		<rect x="19" y="9.67" class="st1" width="3.17" height="3.17"/>
		<rect x="22.17" y="9.67" class="st1" width="3.17" height="3.17"/>
		<rect x="25.33" y="9.67" class="st1" width="3.17" height="3.17"/>
		<rect x="28.5" y="9.67" class="st1" width="3.17" height="3.17"/>
		<rect x="31.66" y="9.67" class="st1" width="3.17" height="3.17"/>
		<rect x="15.83" y="9.67" class="st1" width="22.17" height="3.17"/>
		<rect y="12.84" class="st0" width="3.17" height="3.17"/>
		<rect x="3.17" y="12.84" class="st0" width="3.17" height="3.17"/>
		<rect x="6.33" y="12.84" class="st0" width="3.17" height="3.17"/>
		<rect x="9.5" y="12.84" class="st1" width="6.33" height="3.17"/>
		<rect x="9.5" y="12.84" class="st1" width="6.33" height="3.17"/>
		<rect x="15.83" y="12.84" class="st2" width="22.17" height="3.17"/>
		<rect x="19" y="12.84" class="st2" width="3.17" height="3.17"/>
		<rect x="22.17" y="12.84" class="st2" width="3.17" height="3.17"/>
		<rect x="25.33" y="12.84" class="st2" width="3.17" height="3.17"/>
		<rect x="28.5" y="12.84" class="st2" width="3.17" height="3.17"/>
		<rect x="31.66" y="12.84" class="st2" width="3.17" height="3.17"/>
		<rect x="15.83" y="12.84" class="st2" width="22.17" height="19"/>
		<rect y="16" class="st0" width="3.17" height="3.17"/>
		<rect x="3.17" y="16" class="st0" width="3.17" height="3.17"/>
		<rect x="6.33" y="16" class="st1" width="3.17" height="6.33"/>
		<rect x="9.5" y="16" class="st2" width="34.83" height="15.83"/>
		<rect x="12.67" y="16" class="st2" width="3.17" height="3.17"/>
		<rect x="15.83" y="16" class="st2" width="3.17" height="3.17"/>
		<rect x="19" y="16" class="st2" width="3.17" height="3.17"/>
		<rect x="22.17" y="16" class="st2" width="3.17" height="3.17"/>
		<rect x="25.33" y="16" class="st2" width="3.17" height="3.17"/>
		<rect x="28.5" y="16" class="st2" width="3.17" height="3.17"/>
		<rect x="31.66" y="16" class="st2" width="3.17" height="3.17"/>
		<rect x="34.83" y="16" class="st2" width="3.17" height="3.17"/>
		<rect y="19.17" class="st0" width="3.17" height="3.17"/>
		<rect x="3.17" y="19.17" class="st0" width="3.17" height="3.17"/>
		<rect x="6.33" y="16" class="st1" width="3.17" height="6.33"/>
		<rect x="9.5" y="19.17" class="st2" width="3.17" height="3.17"/>
		<rect x="12.67" y="19.17" class="st2" width="3.17" height="3.17"/>
		<rect x="15.83" y="19.17" class="st2" width="3.17" height="3.17"/>
		<rect x="19" y="19.17" class="st2" width="3.17" height="3.17"/>
		<rect x="22.17" y="19.17" class="st2" width="3.17" height="3.17"/>
		<rect x="25.33" y="19.17" class="st2" width="3.17" height="3.17"/>
		<rect x="28.5" y="19.17" class="st2" width="3.17" height="3.17"/>
		<rect x="31.66" y="19.17" class="st2" width="3.17" height="3.17"/>
		<rect x="34.83" y="19.17" class="st2" width="3.17" height="3.17"/>
		<rect y="22.34" class="st0" width="3.17" height="3.17"/>
		<rect x="3.17" y="22.34" class="st1" width="3.17" height="9.5"/>
		<rect x="6.33" y="22.34" class="st2" width="41.16" height="9.5"/>
		<rect x="9.5" y="22.34" class="st2" width="3.17" height="3.17"/>
		<rect x="12.67" y="22.34" class="st2" width="3.17" height="3.17"/>
		<rect x="15.83" y="22.34" class="st2" width="3.17" height="3.17"/>
		<rect x="19" y="22.34" class="st2" width="3.17" height="3.17"/>
		<rect x="22.17" y="22.34" class="st2" width="3.17" height="3.17"/>
		<rect x="25.33" y="22.34" class="st2" width="3.17" height="3.17"/>
		<rect x="28.5" y="22.34" class="st2" width="3.17" height="3.17"/>
		<rect x="31.66" y="22.34" class="st2" width="3.17" height="3.17"/>
		<rect x="34.83" y="22.34" class="st2" width="3.17" height="3.17"/>
		<rect y="25.5" class="st0" width="3.17" height="3.17"/>
		<rect x="3.17" y="25.5" class="st1" width="3.17" height="3.17"/>
		<rect x="6.33" y="25.5" class="st2" width="3.17" height="3.17"/>
		<rect x="9.5" y="25.5" class="st2" width="3.17" height="3.17"/>
		<rect x="12.67" y="25.5" class="st1" width="3.17" height="6.33"/>
		<rect x="15.83" y="25.5" class="st2" width="3.17" height="3.17"/>
		<rect x="19" y="25.5" class="st2" width="3.17" height="3.17"/>
		<rect x="22.17" y="25.5" class="st2" width="3.17" height="3.17"/>
		<rect x="25.33" y="25.5" class="st2" width="3.17" height="3.17"/>
		<rect x="28.5" y="25.5" class="st2" width="3.17" height="3.17"/>
		<rect x="31.66" y="25.5" class="st2" width="3.17" height="3.17"/>
		<rect x="34.83" y="25.5" class="st2" width="3.17" height="3.17"/>
		<rect y="28.67" class="st0" width="3.17" height="3.17"/>
		<rect x="3.17" y="22.34" class="st1" width="3.17" height="9.5"/>
		<rect x="6.33" y="28.67" class="st2" width="3.17" height="3.17"/>
		<rect x="9.5" y="28.67" class="st2" width="3.17" height="3.17"/>
		<rect x="15.83" y="28.67" class="st2" width="3.17" height="3.17"/>
		<rect x="19" y="28.67" class="st2" width="3.17" height="3.17"/>
		<rect x="22.17" y="28.67" class="st2" width="3.17" height="3.17"/>
		<rect x="25.33" y="28.67" class="st2" width="3.17" height="3.17"/>
		<rect x="28.5" y="28.67" class="st2" width="3.17" height="3.17"/>
		<rect x="31.66" y="28.67" class="st2" width="3.17" height="3.17"/>
		<rect x="34.83" y="28.67" class="st2" width="3.17" height="3.17"/>
		<rect y="31.83" class="st1" width="3.17" height="3.17"/>
		<rect x="6.33" y="22.34" class="st2" width="3.17" height="12.67"/>
		<rect x="9.5" y="31.83" class="st3" width="34.83" height="15.83"/>
		<rect x="12.67" y="31.83" class="st3" width="3.17" height="3.17"/>
		<rect x="15.83" y="31.83" class="st3" width="3.17" height="3.17"/>
		<rect x="19" y="31.83" class="st3" width="3.17" height="3.17"/>
		<rect x="22.17" y="31.83" class="st3" width="3.17" height="3.17"/>
		<rect x="28.5" y="31.83" class="st3" width="3.17" height="3.17"/>
		<rect x="31.66" y="31.83" class="st3" width="3.17" height="3.17"/>
		<rect x="34.83" y="31.83" class="st3" width="3.17" height="3.17"/>
		<rect y="35" class="st0" width="3.17" height="3.17"/>
		<rect x="3.17" y="35" class="st1" width="3.17" height="9.5"/>
		<rect x="6.33" y="35" class="st3" width="3.17" height="9.5"/>
		<rect x="9.5" y="35" class="st4" width="6.33" height="3.17"/>
		<rect x="15.83" y="35" class="st3" width="3.17" height="3.17"/>
		<rect x="19" y="35" class="st3" width="3.17" height="3.17"/>
		<rect x="22.17" y="35" class="st1" width="9.5" height="3.17"/>
		<rect x="25.33" y="35" class="st1" width="3.17" height="3.17"/>
		<rect x="31.66" y="35" class="st3" width="3.17" height="3.17"/>
		<rect x="34.83" y="35" class="st3" width="3.17" height="3.17"/>
		<rect y="38.17" class="st0" width="3.17" height="3.17"/>
		<rect x="3.17" y="38.17" class="st1" width="3.17" height="3.17"/>
		<rect x="6.33" y="38.17" class="st3" width="3.17" height="3.17"/>
		<rect x="9.5" y="38.17" class="st3" width="3.17" height="3.17"/>
		<rect x="12.67" y="38.17" class="st3" width="3.17" height="3.17"/>
		<rect x="15.83" y="38.17" class="st3" width="3.17" height="3.17"/>
		<rect x="19" y="38.17" class="st3" width="3.17" height="3.17"/>
		<rect x="22.17" y="38.17" class="st3" width="3.17" height="3.17"/>
		<rect x="25.33" y="38.17" class="st3" width="3.17" height="3.17"/>
		<rect x="28.5" y="38.17" class="st3" width="3.17" height="3.17"/>
		<rect x="31.66" y="38.17" class="st3" width="3.17" height="3.17"/>
		<rect x="34.83" y="38.17" class="st3" width="3.17" height="3.17"/>
		<rect y="41.33" class="st0" width="3.17" height="3.17"/>
		<rect x="3.17" y="35" class="st1" width="3.17" height="9.5"/>
		<rect x="6.33" y="35" class="st3" width="3.17" height="9.5"/>
		<rect x="9.5" y="41.33" class="st3" width="3.17" height="3.17"/>
		<rect x="12.67" y="41.33" class="st3" width="3.17" height="3.17"/>
		<rect x="15.83" y="41.33" class="st3" width="3.17" height="3.17"/>
		<rect x="19" y="41.33" class="st3" width="3.17" height="3.17"/>
		<rect x="22.17" y="41.33" class="st3" width="3.17" height="3.17"/>
		<rect x="25.33" y="41.33" class="st3" width="3.17" height="3.17"/>
		<rect x="28.5" y="41.33" class="st3" width="3.17" height="3.17"/>
		<rect x="31.66" y="41.33" class="st3" width="3.17" height="3.17"/>
		<rect x="34.83" y="41.33" class="st3" width="3.17" height="3.17"/>
		<rect y="44.5" class="st0" width="3.17" height="3.17"/>
		<rect x="3.17" y="44.5" class="st0" width="3.17" height="3.17"/>
		<rect x="6.33" y="44.5" class="st1" width="3.17" height="3.17"/>
		<rect x="9.5" y="44.5" class="st3" width="34.83" height="3.17"/>
		<rect x="12.67" y="44.5" class="st3" width="3.17" height="3.17"/>
		<rect x="15.83" y="44.5" class="st3" width="3.17" height="3.17"/>
		<rect x="19" y="44.5" class="st3" width="3.17" height="3.17"/>
		<rect x="22.17" y="44.5" class="st3" width="3.17" height="3.17"/>
		<rect x="25.33" y="44.5" class="st3" width="3.17" height="3.17"/>
		<rect x="28.5" y="44.5" class="st3" width="3.17" height="3.17"/>
		<rect x="31.66" y="44.5" class="st3" width="3.17" height="3.17"/>
		<rect x="34.83" y="44.5" class="st3" width="3.17" height="3.17"/>
		<rect x="38" y="9.67" class="st0" width="3.17" height="3.17"/>
		<rect x="41.16" y="9.67" class="st0" width="3.17" height="3.17"/>
		<rect x="44.33" y="9.67" class="st0" width="3.17" height="3.17"/>
		<rect x="47.5" y="9.67" class="st0" width="3.17" height="3.17"/>
		<rect x="50.66" y="9.67" class="st0" width="3.17" height="3.17"/>
		<rect x="38" y="12.84" class="st1" width="6.33" height="3.17"/>
		<rect x="38" y="12.84" class="st1" width="6.33" height="3.17"/>
		<rect x="44.33" y="12.84" class="st0" width="3.17" height="3.17"/>
		<rect x="47.5" y="12.84" class="st0" width="3.17" height="3.17"/>
		<rect x="50.66" y="12.84" class="st0" width="3.17" height="3.17"/>
		<rect x="38" y="16" class="st2" width="3.17" height="3.17"/>
		<rect x="41.16" y="16" class="st2" width="3.17" height="3.17"/>
		<rect x="44.33" y="16" class="st1" width="3.17" height="6.33"/>
		<rect x="47.5" y="16" class="st0" width="3.17" height="3.17"/>
		<rect x="50.66" y="16" class="st0" width="3.17" height="3.17"/>
		<rect x="38" y="19.17" class="st2" width="3.17" height="3.17"/>
		<rect x="41.16" y="19.17" class="st2" width="3.17" height="3.17"/>
		<rect x="44.33" y="16" class="st1" width="3.17" height="6.33"/>
		<rect x="47.5" y="19.17" class="st0" width="3.17" height="3.17"/>
		<rect x="50.66" y="19.17" class="st0" width="3.17" height="3.17"/>
		<rect x="38" y="22.34" class="st2" width="3.17" height="3.17"/>
		<rect x="41.16" y="22.34" class="st2" width="3.17" height="3.17"/>
		<rect x="44.33" y="22.34" class="st2" width="3.17" height="3.17"/>
		<rect x="47.5" y="22.34" class="st1" width="3.17" height="9.5"/>
		<rect x="50.66" y="22.34" class="st0" width="3.17" height="3.17"/>
		<rect x="38" y="25.5" class="st1" width="3.17" height="6.33"/>
		<rect x="41.16" y="25.5" class="st2" width="3.17" height="3.17"/>
		<rect x="44.33" y="25.5" class="st2" width="3.17" height="3.17"/>
		<rect x="47.5" y="25.5" class="st1" width="3.17" height="3.17"/>
		<rect x="50.66" y="25.5" class="st0" width="3.17" height="3.17"/>
		<rect x="41.16" y="28.67" class="st2" width="3.17" height="3.17"/>
		<rect x="6.33" y="22.34" class="st2" width="41.16" height="9.5"/>
		<rect x="47.5" y="22.34" class="st1" width="3.17" height="9.5"/>
		<g>
			<rect x="51.7" y="28.53" class="st0" width="3.3" height="3.3"/>
		</g>
		<rect x="38" y="31.83" class="st3" width="3.17" height="3.17"/>
		<rect x="41.16" y="31.83" class="st3" width="3.17" height="3.17"/>
		<rect x="44.33" y="22.34" class="st2" width="3.17" height="12.67"/>
		<rect x="50.66" y="31.83" class="st1" width="3.17" height="3.17"/>
		<rect x="38" y="35" class="st4" width="6.33" height="3.17"/>
		<rect x="44.33" y="35" class="st3" width="3.17" height="9.5"/>
		<rect x="47.5" y="35" class="st1" width="3.17" height="9.5"/>
		<rect x="50.66" y="35" class="st0" width="3.17" height="3.17"/>
		<rect x="38" y="38.17" class="st3" width="3.17" height="3.17"/>
		<rect x="41.16" y="38.17" class="st3" width="3.17" height="3.17"/>
		<rect x="44.33" y="38.17" class="st3" width="3.17" height="3.17"/>
		<rect x="47.5" y="38.17" class="st1" width="3.17" height="3.17"/>
		<rect x="50.66" y="38.17" class="st0" width="3.17" height="3.17"/>
		<rect x="38" y="41.33" class="st3" width="3.17" height="3.17"/>
		<rect x="41.16" y="41.33" class="st3" width="3.17" height="3.17"/>
		<rect x="6.33" y="35" class="st3" width="41.16" height="9.5"/>
		<rect x="47.5" y="35" class="st1" width="3.17" height="9.5"/>
		<rect x="50.66" y="41.33" class="st0" width="3.17" height="3.17"/>
		<rect x="38" y="44.5" class="st3" width="3.17" height="3.17"/>
		<rect x="9.5" y="31.83" class="st3" width="34.83" height="15.83"/>
		<rect x="44.33" y="44.5" class="st1" width="3.17" height="3.17"/>
		<rect x="47.5" y="44.5" class="st0" width="3.17" height="3.17"/>
		<rect x="50.66" y="44.5" class="st0" width="3.17" height="3.17"/>
		<rect y="47.67" class="st0" width="3.17" height="3.17"/>
		<rect x="3.17" y="47.67" class="st0" width="3.17" height="3.17"/>
		<rect x="6.33" y="47.67" class="st0" width="3.17" height="3.17"/>
		<rect x="9.5" y="47.67" class="st5" width="3.17" height="3.17"/>
		<rect x="12.67" y="47.67" class="st3" width="28.5" height="3.17"/>
		<rect x="15.83" y="47.67" class="st3" width="3.17" height="3.17"/>
		<rect x="19" y="47.67" class="st3" width="3.17" height="3.17"/>
		<rect x="22.17" y="47.67" class="st3" width="3.17" height="3.17"/>
		<rect x="25.33" y="47.67" class="st3" width="3.17" height="3.17"/>
		<rect x="28.5" y="47.67" class="st3" width="3.17" height="3.17"/>
		<rect x="31.66" y="47.67" class="st3" width="3.17" height="3.17"/>
		<rect x="34.83" y="47.67" class="st3" width="3.17" height="3.17"/>
		<rect y="50.83" class="st0" width="3.17" height="3.17"/>
		<rect x="3.17" y="50.83" class="st0" width="3.17" height="3.17"/>
		<rect x="6.33" y="50.83" class="st0" width="3.17" height="3.17"/>
		<rect x="9.5" y="50.83" class="st0" width="3.17" height="3.17"/>
		<rect x="12.67" y="50.83" class="st5" width="28.5" height="3.17"/>
		<rect x="15.83" y="50.83" class="st5" width="3.17" height="3.17"/>
		<rect x="19" y="50.83" class="st5" width="3.17" height="3.17"/>
		<rect x="22.17" y="50.83" class="st5" width="3.17" height="3.17"/>
		<rect x="25.33" y="50.83" class="st5" width="3.17" height="3.17"/>
		<rect x="28.5" y="50.83" class="st5" width="3.17" height="3.17"/>
		<rect x="31.66" y="50.83" class="st5" width="3.17" height="3.17"/>
		<rect x="34.83" y="50.83" class="st5" width="3.17" height="3.17"/>
		<rect x="12.67" y="31.83" class="st3" width="28.5" height="19"/>
		<rect x="41.16" y="47.67" class="st5" width="3.17" height="3.17"/>
		<rect x="44.33" y="47.67" class="st0" width="3.17" height="3.17"/>
		<rect x="47.5" y="47.67" class="st0" width="3.17" height="3.17"/>
		<rect x="50.66" y="47.67" class="st0" width="3.17" height="3.17"/>
		<rect x="12.67" y="50.83" class="st5" width="28.5" height="3.17"/>
		<rect x="41.16" y="50.83" class="st0" width="3.17" height="3.17"/>
		<rect x="44.33" y="50.83" class="st0" width="3.17" height="3.17"/>
		<rect x="47.5" y="50.83" class="st0" width="3.17" height="3.17"/>
		<rect x="50.66" y="50.83" class="st0" width="3.17" height="3.17"/>
		<rect x="12.67" y="25.5" class="st1" width="3.17" height="6.33"/>
		<rect x="38" y="25.5" class="st1" width="3.17" height="6.33"/>
		<rect x="3.17" y="31.83" class="st2" width="6.33" height="3.17"/>
		<rect x="44.33" y="31.83" class="st2" width="6.33" height="3.17"/>
		<rect x="25.33" y="31.83" class="st1" width="3.17" height="6.33"/>
		<rect x="9.5" y="35" class="st4" width="6.33" height="3.17"/>
		<rect x="22.17" y="35" class="st1" width="9.5" height="3.17"/>
		<rect x="38" y="35" class="st4" width="6.33" height="3.17"/>
	</g>
	<g>
		<path class="st3" d="M76.25,54c-0.25,0-0.46-0.08-0.64-0.25c-0.18-0.17-0.27-0.39-0.27-0.67v-6.94c-0.44,0.76-0.92,1.51-1.43,2.25
			c-0.51,0.74-1.02,1.42-1.51,2.04c-0.18,0.21-0.41,0.33-0.69,0.36c-0.28,0.03-0.54-0.05-0.77-0.22c-0.07-0.04-0.14-0.12-0.21-0.24
			c-0.27,1.29-0.72,2.18-1.35,2.66c-0.64,0.49-1.46,0.75-2.46,0.78c-0.35,0.02-0.64-0.07-0.85-0.25s-0.34-0.43-0.37-0.73
			c-0.02-0.3,0.05-0.56,0.2-0.77c0.15-0.21,0.38-0.33,0.68-0.34c0.62-0.05,1.11-0.22,1.47-0.5c0.36-0.28,0.62-0.79,0.78-1.54
			c0.16-0.74,0.24-1.81,0.24-3.21c0-0.56,0-1.11-0.01-1.63c-0.01-0.52-0.02-1.02-0.04-1.5c-0.32,0.53-0.66,1.06-1.03,1.59
			c-0.37,0.53-0.74,1.02-1.11,1.48c-0.18,0.23-0.41,0.37-0.69,0.42c-0.28,0.05-0.54,0-0.77-0.16c-0.23-0.16-0.36-0.38-0.4-0.65
			c-0.04-0.27,0.04-0.51,0.21-0.7c0.64-0.72,1.27-1.57,1.91-2.53c0.64-0.96,1.17-1.88,1.59-2.74c-0.07-0.51-0.15-1-0.23-1.47
			c-0.08-0.47-0.18-0.92-0.3-1.36c-0.21,0.23-0.43,0.46-0.65,0.69c-0.22,0.23-0.44,0.45-0.65,0.66c-0.23,0.21-0.49,0.32-0.78,0.33
			s-0.54-0.09-0.75-0.3c-0.19-0.19-0.3-0.43-0.3-0.72c-0.01-0.28,0.09-0.52,0.3-0.71c0.35-0.3,0.71-0.64,1.07-1.02
			c0.36-0.38,0.71-0.77,1.05-1.18c-0.23-0.56-0.49-1.12-0.79-1.67s-0.63-1.1-0.98-1.64c-0.12-0.21-0.15-0.45-0.07-0.7
			c0.08-0.26,0.23-0.45,0.46-0.57c0.25-0.12,0.5-0.14,0.77-0.05c0.27,0.09,0.47,0.26,0.61,0.5c0.25,0.41,0.49,0.8,0.72,1.19
			c0.23,0.39,0.43,0.79,0.61,1.19c0.28-0.41,0.54-0.8,0.77-1.18c0.23-0.38,0.43-0.75,0.61-1.1c0.14-0.27,0.34-0.44,0.6-0.52
			c0.26-0.08,0.51-0.05,0.76,0.09c0.25,0.12,0.41,0.31,0.49,0.56c0.08,0.25,0.06,0.5-0.07,0.74c-0.3,0.6-0.65,1.2-1.03,1.8
			c-0.39,0.6-0.79,1.18-1.22,1.75c0.51,1.5,0.87,3.13,1.06,4.89s0.29,3.83,0.29,6.21c0,0.53-0.01,1.02-0.04,1.47
			c-0.03,0.45-0.06,0.88-0.09,1.29c0.46-0.5,0.94-1.06,1.43-1.71c0.49-0.64,0.98-1.32,1.46-2.01c0.48-0.7,0.89-1.37,1.25-2.03
			c-0.76-0.02-1.36-0.12-1.79-0.3c-0.43-0.19-0.74-0.52-0.91-1.01c-0.18-0.49-0.27-1.16-0.27-2.03c0-0.92,0.1-1.62,0.29-2.11
			c0.19-0.49,0.53-0.82,0.99-0.99c0.47-0.18,1.11-0.26,1.92-0.26h0.05v-2.31H72.3c-0.27,0-0.48-0.08-0.64-0.25
			c-0.16-0.17-0.24-0.37-0.24-0.6c0-0.25,0.08-0.45,0.24-0.62c0.16-0.17,0.37-0.25,0.64-0.25h3.05v-2.33c0-0.3,0.09-0.53,0.27-0.69
			c0.18-0.16,0.39-0.24,0.64-0.24c0.27,0,0.49,0.08,0.66,0.24c0.18,0.16,0.27,0.39,0.27,0.69v2.33h2.99c0.26,0,0.48,0.08,0.64,0.25
			c0.16,0.17,0.24,0.38,0.24,0.62c0,0.23-0.08,0.43-0.24,0.6c-0.16,0.17-0.37,0.25-0.64,0.25h-2.99v2.31h0.03
			c0.83,0,1.48,0.09,1.93,0.26s0.79,0.51,0.98,0.99c0.19,0.49,0.29,1.19,0.29,2.11c0,0.9-0.1,1.59-0.29,2.08
			c-0.19,0.49-0.52,0.82-0.98,0.99s-1.1,0.26-1.93,0.26h-0.03v0.64c0.44,0.55,0.95,1.14,1.54,1.76s1.12,1.18,1.62,1.66
			c0.19,0.19,0.29,0.43,0.29,0.72c0,0.28-0.1,0.52-0.29,0.71c-0.19,0.18-0.43,0.26-0.7,0.25s-0.51-0.12-0.7-0.33
			c-0.27-0.3-0.55-0.63-0.85-0.99c-0.3-0.36-0.6-0.73-0.9-1.1v6.33c0,0.28-0.09,0.51-0.27,0.67S76.51,54,76.25,54z M75.35,41.76
			v-3.37c-0.62,0.02-1.02,0.12-1.21,0.32s-0.28,0.65-0.28,1.38c0,0.71,0.09,1.16,0.28,1.35S74.73,41.74,75.35,41.76z M77.17,41.76
			c0.62-0.02,1.02-0.13,1.19-0.33c0.18-0.2,0.27-0.65,0.27-1.34c0-0.71-0.09-1.16-0.27-1.37c-0.18-0.2-0.57-0.31-1.19-0.33V41.76z
			 M81.47,53.55c-0.23,0.16-0.48,0.23-0.74,0.21c-0.26-0.02-0.49-0.14-0.66-0.37c-0.14-0.21-0.2-0.45-0.17-0.7s0.15-0.45,0.36-0.57
			c0.39-0.25,0.85-0.57,1.39-0.98c0.54-0.41,0.98-0.78,1.31-1.11c0.18-0.18,0.38-0.26,0.62-0.24c0.24,0.02,0.44,0.12,0.6,0.29
			c0.18,0.18,0.27,0.38,0.27,0.61c0,0.23-0.09,0.43-0.27,0.61c-0.34,0.35-0.77,0.76-1.31,1.21S81.86,53.3,81.47,53.55z M80.96,37.09
			c-0.18-0.16-0.26-0.37-0.25-0.62s0.1-0.46,0.28-0.6c0.58-0.48,1.07-1.05,1.46-1.71s0.69-1.38,0.9-2.16h-1.72
			c-0.25,0-0.45-0.08-0.6-0.24c-0.15-0.16-0.23-0.35-0.23-0.58c0-0.23,0.08-0.42,0.23-0.58c0.15-0.16,0.35-0.24,0.6-0.24h5.14
			c0.88,0,1.5,0.2,1.86,0.6c0.35,0.4,0.49,1.04,0.4,1.92c-0.09,1.1-0.25,1.93-0.49,2.49c-0.24,0.57-0.59,0.95-1.06,1.14
			c-0.47,0.19-1.1,0.29-1.9,0.29c-0.26,0-0.48-0.08-0.65-0.23c-0.17-0.15-0.26-0.34-0.28-0.57c-0.02-0.23,0.05-0.42,0.21-0.58
			s0.38-0.25,0.66-0.26c0.39-0.04,0.69-0.09,0.9-0.16s0.37-0.24,0.48-0.5c0.11-0.26,0.19-0.7,0.27-1.3c0.05-0.48,0.02-0.8-0.11-0.95
			c-0.12-0.16-0.4-0.24-0.82-0.24h-1.17c-0.21,0.99-0.55,1.92-1.02,2.8c-0.47,0.88-1.06,1.62-1.76,2.24
			c-0.19,0.18-0.42,0.27-0.66,0.29C81.38,37.35,81.16,37.27,80.96,37.09z M85.18,49.36c-0.95,0-1.69-0.09-2.2-0.26
			c-0.51-0.18-0.87-0.49-1.07-0.93c-0.2-0.44-0.31-1.06-0.31-1.85v-5.83c0-0.79,0.1-1.41,0.31-1.86c0.2-0.44,0.56-0.75,1.07-0.93
			c0.51-0.18,1.25-0.27,2.2-0.27s1.69,0.09,2.2,0.27c0.51,0.18,0.87,0.49,1.06,0.93c0.19,0.44,0.29,1.06,0.29,1.86v5.83
			c0,0.79-0.1,1.41-0.29,1.85c-0.19,0.44-0.55,0.75-1.06,0.93C86.86,49.27,86.13,49.36,85.18,49.36z M83.51,40.93h3.31v-0.4
			c0-0.62-0.09-1.01-0.28-1.17s-0.64-0.24-1.36-0.24c-0.72,0-1.18,0.08-1.38,0.24c-0.19,0.16-0.29,0.55-0.29,1.17V40.93z
			 M83.51,44.27h3.31V42.5h-3.31V44.27z M85.18,47.67c0.72,0,1.18-0.08,1.36-0.24c0.19-0.16,0.28-0.55,0.28-1.17v-0.42h-3.31v0.42
			c0,0.62,0.1,1.01,0.29,1.17C83.99,47.59,84.45,47.67,85.18,47.67z M88.54,53.58c-0.23-0.19-0.51-0.43-0.83-0.72
			c-0.33-0.28-0.65-0.57-0.95-0.86c-0.31-0.29-0.56-0.54-0.75-0.76c-0.16-0.18-0.23-0.38-0.2-0.62c0.03-0.24,0.13-0.44,0.3-0.6
			c0.19-0.16,0.41-0.23,0.64-0.21s0.42,0.12,0.58,0.29c0.19,0.2,0.44,0.42,0.74,0.68c0.3,0.26,0.61,0.51,0.93,0.76
			c0.32,0.25,0.58,0.46,0.79,0.64c0.21,0.16,0.33,0.37,0.34,0.62c0.02,0.26-0.04,0.47-0.19,0.65c-0.18,0.21-0.4,0.33-0.68,0.36
			S88.76,53.75,88.54,53.58z"/>
		<path class="st3" d="M95.41,53.36c-0.3,0.18-0.63,0.24-0.98,0.2c-0.35-0.04-0.63-0.23-0.82-0.54c-0.16-0.3-0.2-0.6-0.13-0.89
			c0.07-0.29,0.26-0.53,0.56-0.7c1.64-0.85,2.94-1.95,3.88-3.3c0.94-1.35,1.48-3.08,1.6-5.18H95.3c-0.34,0-0.61-0.12-0.83-0.34
			c-0.22-0.23-0.33-0.5-0.33-0.82c0-0.32,0.11-0.59,0.33-0.81c0.22-0.22,0.5-0.33,0.83-0.33h4.24v-4.56h-1.88
			c-0.3,0.5-0.61,0.97-0.93,1.43c-0.32,0.46-0.64,0.88-0.95,1.27c-0.21,0.25-0.48,0.41-0.81,0.49c-0.33,0.08-0.64,0.02-0.94-0.17
			c-0.23-0.16-0.38-0.39-0.46-0.69c-0.08-0.3-0.02-0.56,0.17-0.79c0.57-0.64,1.1-1.36,1.62-2.16c0.51-0.8,0.97-1.63,1.38-2.48
			c0.41-0.85,0.72-1.65,0.95-2.41c0.09-0.32,0.28-0.55,0.57-0.69s0.6-0.16,0.94-0.05c0.32,0.11,0.55,0.3,0.69,0.6
			c0.14,0.29,0.15,0.6,0.03,0.91c-0.16,0.41-0.33,0.82-0.5,1.25c-0.18,0.42-0.36,0.84-0.56,1.25h5.88c0.35,0,0.63,0.11,0.83,0.33
			c0.2,0.22,0.3,0.48,0.3,0.78c0,0.32-0.1,0.59-0.3,0.81c-0.2,0.22-0.48,0.33-0.83,0.33h-2.86v4.56h3.71c0.35,0,0.64,0.11,0.85,0.33
			c0.21,0.22,0.32,0.49,0.32,0.81c0,0.32-0.11,0.59-0.32,0.82c-0.21,0.23-0.5,0.34-0.85,0.34h-3.74c0,0.32-0.03,0.64-0.08,0.95
			c0.37,0.64,0.83,1.32,1.36,2.04c0.54,0.72,1.1,1.42,1.68,2.09c0.58,0.67,1.1,1.24,1.56,1.7c0.25,0.25,0.35,0.54,0.32,0.86
			c-0.04,0.33-0.18,0.61-0.42,0.83c-0.27,0.25-0.57,0.36-0.93,0.34s-0.65-0.16-0.9-0.42c-0.48-0.51-1.02-1.18-1.64-2.01
			c-0.62-0.83-1.19-1.65-1.72-2.46c-0.5,1.38-1.21,2.6-2.16,3.67C97.97,51.61,96.8,52.55,95.41,53.36z M112.1,51.06
			c-1.18,0-2.12-0.15-2.81-0.44c-0.69-0.29-1.18-0.77-1.47-1.43c-0.29-0.66-0.44-1.55-0.44-2.66v-8.67c0-1.11,0.15-2,0.44-2.66
			c0.29-0.66,0.78-1.14,1.47-1.43c0.69-0.29,1.62-0.44,2.81-0.44c1.18,0,2.12,0.15,2.8,0.44c0.68,0.29,1.17,0.77,1.46,1.43
			c0.29,0.66,0.44,1.55,0.44,2.66v8.69c0,1.11-0.15,2-0.44,2.66c-0.29,0.66-0.78,1.14-1.46,1.42
			C114.22,50.92,113.29,51.06,112.1,51.06z M112.1,48.78c0.95,0,1.58-0.17,1.88-0.5c0.3-0.34,0.45-0.95,0.45-1.83v-8.51
			c0-0.88-0.15-1.49-0.45-1.83c-0.3-0.33-0.93-0.5-1.88-0.5s-1.58,0.17-1.88,0.5c-0.3,0.34-0.45,0.95-0.45,1.83v8.48
			c0,0.88,0.15,1.5,0.45,1.84C110.52,48.61,111.15,48.78,112.1,48.78z"/>
		<path class="st3" d="M123.26,53.95c-0.39,0.05-0.71,0-0.98-0.16c-0.26-0.16-0.43-0.43-0.5-0.82c-0.07-0.34,0-0.63,0.22-0.88
			c0.22-0.25,0.52-0.4,0.89-0.45c2.28-0.28,4.17-0.8,5.67-1.55s2.6-1.8,3.29-3.14h-7.92c-0.28,0-0.53-0.1-0.73-0.3
			s-0.3-0.45-0.3-0.73c0-0.3,0.1-0.55,0.3-0.74s0.45-0.29,0.73-0.29h8.61c0.11-0.62,0.16-1.26,0.16-1.93v-0.03h-9.7
			c-0.28,0-0.53-0.1-0.73-0.3c-0.2-0.2-0.3-0.45-0.3-0.73c0-0.3,0.1-0.55,0.3-0.74c0.2-0.19,0.45-0.29,0.73-0.29h9.7v-1.88h-6.86
			c-0.28,0-0.53-0.1-0.73-0.3s-0.3-0.45-0.3-0.73c0-0.3,0.1-0.55,0.3-0.74s0.45-0.29,0.73-0.29h6.86v-1.8h-8.75
			c-0.28,0-0.53-0.1-0.73-0.3s-0.3-0.45-0.3-0.73c0-0.28,0.1-0.53,0.3-0.73s0.45-0.3,0.73-0.3h5.54c-0.11-0.14-0.25-0.34-0.42-0.58
			c-0.18-0.25-0.35-0.49-0.52-0.73c-0.17-0.24-0.3-0.43-0.41-0.57c-0.18-0.25-0.24-0.52-0.2-0.82s0.2-0.54,0.46-0.72
			c0.28-0.19,0.58-0.28,0.89-0.25c0.31,0.03,0.57,0.17,0.78,0.44c0.25,0.32,0.49,0.65,0.73,0.99c0.24,0.34,0.44,0.65,0.6,0.91
			c0.34,0.5,0.34,0.94,0,1.33h4.13c0.2-0.27,0.42-0.59,0.66-0.98c0.25-0.39,0.49-0.78,0.74-1.18c0.25-0.4,0.44-0.72,0.58-0.97
			c0.18-0.3,0.43-0.48,0.76-0.54c0.33-0.06,0.63,0,0.91,0.2c0.28,0.18,0.47,0.41,0.56,0.7c0.09,0.29,0.04,0.57-0.13,0.83
			c-0.14,0.23-0.34,0.52-0.6,0.87c-0.26,0.35-0.51,0.71-0.76,1.06h5.59c0.28,0,0.53,0.1,0.73,0.3s0.3,0.45,0.3,0.73
			c0,0.28-0.1,0.53-0.3,0.73s-0.45,0.3-0.73,0.3h-8.75v1.8h6.79c0.28,0,0.53,0.1,0.73,0.29s0.3,0.44,0.3,0.74
			c0,0.28-0.1,0.53-0.3,0.73s-0.45,0.3-0.73,0.3h-6.79v1.88h9.78c0.3,0,0.55,0.1,0.74,0.29c0.19,0.2,0.29,0.44,0.29,0.74
			c0,0.28-0.1,0.53-0.29,0.73c-0.2,0.2-0.44,0.3-0.74,0.3h-9.78v0.03c0,0.33-0.01,0.66-0.03,0.98c-0.02,0.32-0.05,0.64-0.11,0.95
			h9.01c0.28,0,0.53,0.1,0.73,0.29s0.3,0.44,0.3,0.74c0,0.28-0.1,0.53-0.3,0.73s-0.45,0.3-0.73,0.3h-7.9
			c0.83,1.22,2.04,2.21,3.62,2.98c1.58,0.77,3.41,1.27,5.47,1.5c0.39,0.05,0.69,0.22,0.89,0.5s0.26,0.6,0.17,0.95
			c-0.09,0.35-0.27,0.6-0.54,0.75c-0.28,0.15-0.62,0.2-1.02,0.15c-2.3-0.3-4.39-0.95-6.28-1.96s-3.33-2.36-4.32-4.05
			C132.39,51.11,128.79,53.17,123.26,53.95z"/>
		<path class="st3" d="M150.71,36.46c-0.28,0-0.52-0.09-0.7-0.28s-0.28-0.42-0.28-0.7c0-0.26,0.09-0.49,0.28-0.68
			s0.42-0.28,0.7-0.28h8.77c0.3,0,0.53,0.09,0.7,0.28c0.17,0.19,0.25,0.41,0.25,0.68c0,0.28-0.08,0.52-0.25,0.7
			c-0.17,0.19-0.4,0.28-0.7,0.28H150.71z M152.04,32.8c-0.3,0-0.54-0.1-0.73-0.29s-0.28-0.42-0.28-0.69c0-0.28,0.09-0.52,0.28-0.71
			s0.43-0.29,0.73-0.29h6.23c0.3,0,0.54,0.1,0.73,0.29s0.28,0.43,0.28,0.71c0,0.27-0.09,0.5-0.28,0.69s-0.43,0.29-0.73,0.29H152.04z
			 M151.99,40.14c-0.28,0-0.51-0.1-0.69-0.29s-0.26-0.42-0.26-0.69s0.09-0.49,0.26-0.69s0.41-0.29,0.69-0.29h6.31
			c0.3,0,0.54,0.1,0.72,0.29s0.26,0.42,0.26,0.69s-0.09,0.5-0.26,0.69s-0.42,0.29-0.72,0.29H151.99z M151.99,43.8
			c-0.28,0-0.51-0.09-0.69-0.28s-0.26-0.41-0.26-0.68c0-0.28,0.09-0.52,0.26-0.7s0.41-0.28,0.69-0.28h6.31
			c0.3,0,0.54,0.09,0.72,0.28s0.26,0.42,0.26,0.7c0,0.26-0.09,0.49-0.26,0.68s-0.42,0.28-0.72,0.28H151.99z M155.3,53.2
			c-1.06,0-1.89-0.12-2.48-0.36c-0.59-0.24-1.01-0.64-1.26-1.21c-0.25-0.57-0.37-1.33-0.37-2.31c0-0.97,0.12-1.74,0.37-2.3
			c0.25-0.57,0.67-0.97,1.26-1.22c0.59-0.25,1.42-0.37,2.48-0.37c1.06,0,1.89,0.12,2.48,0.37c0.59,0.25,1.01,0.65,1.25,1.22
			c0.24,0.57,0.36,1.33,0.36,2.3c0,0.97-0.12,1.74-0.36,2.31c-0.24,0.57-0.65,0.97-1.25,1.21S156.36,53.2,155.3,53.2z M155.3,51.24
			c0.78,0,1.29-0.13,1.54-0.38c0.25-0.26,0.37-0.76,0.37-1.52c0-0.74-0.12-1.25-0.37-1.52c-0.25-0.27-0.76-0.41-1.54-0.41
			c-0.79,0-1.32,0.14-1.56,0.41c-0.25,0.27-0.37,0.78-0.37,1.52c0,0.76,0.12,1.27,0.37,1.52C153.98,51.12,154.5,51.24,155.3,51.24z
			 M160.76,43c-0.3,0-0.55-0.1-0.74-0.3s-0.29-0.45-0.29-0.73c0-0.3,0.1-0.55,0.29-0.76s0.44-0.3,0.74-0.3h2.57
			c0.12-0.42,0.26-0.95,0.41-1.58c0.15-0.63,0.3-1.29,0.46-1.97h-2.09c-0.3,0-0.54-0.1-0.73-0.29c-0.19-0.19-0.28-0.42-0.28-0.69
			c0-0.28,0.09-0.52,0.28-0.72s0.43-0.29,0.73-0.29h2.54c0.11-0.51,0.21-0.99,0.3-1.42c0.1-0.43,0.18-0.82,0.25-1.15h-3.92
			c-0.28,0-0.52-0.1-0.7-0.29c-0.19-0.19-0.28-0.42-0.28-0.69c0-0.28,0.09-0.52,0.28-0.71c0.18-0.19,0.42-0.29,0.7-0.29h11.63
			c0.3,0,0.54,0.1,0.73,0.29s0.28,0.43,0.28,0.71c0,0.27-0.09,0.5-0.28,0.69s-0.43,0.29-0.73,0.29h-5.38
			c-0.07,0.34-0.15,0.72-0.24,1.17c-0.09,0.44-0.19,0.91-0.29,1.41h0.95c1.33,0,2.23,0.24,2.72,0.71c0.49,0.48,0.73,1.32,0.73,2.52
			v2.31h2.2c0.32,0,0.57,0.1,0.75,0.3s0.28,0.46,0.28,0.76c0,0.28-0.09,0.53-0.28,0.73s-0.44,0.3-0.75,0.3H160.76z M167.2,53.18
			c-1.31,0-2.33-0.12-3.06-0.36c-0.73-0.24-1.25-0.66-1.55-1.26s-0.45-1.45-0.45-2.54s0.15-1.94,0.45-2.54s0.82-1.02,1.55-1.25
			c0.73-0.23,1.75-0.34,3.06-0.34c1.33,0,2.35,0.11,3.09,0.34c0.73,0.23,1.25,0.65,1.55,1.25c0.3,0.6,0.45,1.45,0.45,2.54
			s-0.15,1.94-0.45,2.54c-0.3,0.6-0.82,1.02-1.55,1.26S168.52,53.18,167.2,53.18z M167.22,51.03c0.76,0,1.33-0.05,1.72-0.15
			s0.65-0.29,0.79-0.58c0.14-0.29,0.21-0.72,0.21-1.29s-0.07-0.99-0.21-1.27c-0.14-0.28-0.41-0.47-0.79-0.57s-0.96-0.15-1.72-0.15
			s-1.34,0.05-1.74,0.16c-0.4,0.11-0.67,0.3-0.81,0.57c-0.14,0.27-0.21,0.68-0.21,1.23c0,0.58,0.07,1.02,0.21,1.31
			c0.14,0.29,0.41,0.49,0.81,0.58S166.46,51.03,167.22,51.03z M165.71,40.91h3.45v-1.93c0-0.65-0.11-1.09-0.32-1.3
			c-0.21-0.21-0.67-0.32-1.38-0.32h-0.9c-0.16,0.69-0.31,1.35-0.46,1.97C165.95,39.96,165.82,40.48,165.71,40.91z"/>
	</g>
	<g>
		<path class="st3" d="M172.69,7.66c0.88,0,1.6-0.72,1.6-1.6c0-0.88-0.72-1.6-1.6-1.6c-0.88,0-1.6,0.71-1.6,1.6
			C171.09,6.95,171.81,7.66,172.69,7.66"/>
		<g>
			<path class="st3" d="M123.35,20.82c1.91,0,3.72-0.74,5.07-2.09c0.45-0.45,0.45-1.17,0-1.62c-0.45-0.45-1.18-0.45-1.63,0
				c-1.9,1.89-4.99,1.89-6.89,0c-1.9-1.89-1.9-4.98,0-6.87c1.9-1.89,4.99-1.89,6.89,0c0.45,0.45,1.18,0.45,1.63,0
				c0.45-0.45,0.45-1.17,0-1.62c-1.35-1.35-3.15-2.09-5.07-2.09c-1.91,0-3.72,0.74-5.07,2.09s-2.1,3.15-2.1,5.06
				c0,1.91,0.75,3.71,2.1,5.06C119.63,20.08,121.43,20.82,123.35,20.82"/>
			<path class="st3" d="M112.58,6.81c-0.63,0-1.15,0.51-1.15,1.15v11.42c0,0.63,0.51,1.15,1.15,1.15c0.63,0,1.15-0.51,1.15-1.15
				V7.96C113.73,7.32,113.21,6.81,112.58,6.81"/>
			<path class="st3" d="M85.44,14.59V7.96c0-0.63-0.51-1.15-1.15-1.15c-0.63,0-1.15,0.51-1.15,1.15v6.62c0,1.66,0.65,3.23,1.83,4.4
				c1.18,1.18,2.75,1.82,4.41,1.82c1.67,0,3.23-0.65,4.41-1.82c1.18-1.18,1.83-2.74,1.83-4.4V7.96c0-0.63-0.52-1.15-1.15-1.15
				c-0.64,0-1.15,0.51-1.15,1.15v6.62c0,2.17-1.77,3.93-3.94,3.93C87.21,18.52,85.44,16.75,85.44,14.59"/>
			<path class="st3" d="M78.98,20.53c-0.63,0-1.15-0.51-1.15-1.15V5.16l-4.29,6.88c-0.21,0.34-0.58,0.54-0.98,0.54
				c-0.4,0-0.77-0.2-0.98-0.54L67.3,5.16v14.22c0,0.63-0.52,1.15-1.15,1.15c-0.64,0-1.15-0.51-1.15-1.15V1.15
				c0-0.51,0.34-0.96,0.83-1.1c0.49-0.14,1.02,0.06,1.29,0.5l5.44,8.72L78,0.54c0.27-0.44,0.8-0.64,1.29-0.5
				c0.49,0.14,0.83,0.59,0.83,1.1v18.24C80.13,20.02,79.61,20.53,78.98,20.53"/>
			<path class="st3" d="M103.05,20.83c-1.96,0-3.79-0.74-5.14-2.1c-0.21-0.21-0.33-0.49-0.33-0.79c0-0.3,0.12-0.58,0.33-0.79
				c0.21-0.21,0.49-0.33,0.79-0.33c0.3,0,0.58,0.12,0.79,0.33c0.93,0.93,2.2,1.44,3.56,1.44c1.67,0,3.47-0.6,3.47-1.91
				c0-0.76-0.27-1.2-0.94-1.53c-0.73-0.36-1.8-0.5-2.85-0.6c-1.19-0.11-2.18-0.39-2.95-0.84c-0.55-0.32-0.99-0.73-1.3-1.22
				c-0.36-0.56-0.54-1.21-0.54-1.92c0-1.34,0.63-2.48,1.77-3.21c0.86-0.55,1.99-0.85,3.18-0.85c1.86,0,3.45,0.69,4.86,2.1
				c0.21,0.21,0.33,0.49,0.33,0.79c0,0.3-0.12,0.58-0.33,0.79c-0.21,0.21-0.49,0.33-0.79,0.33c-0.3,0-0.58-0.12-0.79-0.33
				c-1-1-2.01-1.44-3.28-1.44c-0.75,0-1.47,0.18-1.97,0.5c-0.51,0.32-0.74,0.74-0.74,1.33c0,0.55,0.22,0.92,0.73,1.22
				c0.47,0.28,1.18,0.47,2.03,0.55c1.18,0.11,2.52,0.27,3.64,0.83c1.43,0.71,2.18,1.93,2.18,3.53c0,1.31-0.67,2.44-1.88,3.19
				C105.87,20.5,104.54,20.83,103.05,20.83"/>
			<path class="st3" d="M191.21,9.11h1.95v10.27c0,0.63,0.51,1.15,1.15,1.15c0.63,0,1.15-0.51,1.15-1.15V9.11h1.95
				c0.64,0,1.15-0.51,1.15-1.15c0-0.63-0.51-1.15-1.15-1.15h-1.95v-5.6c0-0.63-0.51-1.15-1.15-1.15c-0.64,0-1.15,0.51-1.15,1.15v5.6
				h-1.95c-0.64,0-1.15,0.51-1.15,1.15C190.06,8.59,190.57,9.11,191.21,9.11"/>
			<path class="st3" d="M182.26,8.81c2.29,0,4.21,1.58,4.73,3.71h-9.46C178.04,10.39,179.97,8.81,182.26,8.81 M179.67,20.34
				c0.05,0.02,0.11,0.04,0.16,0.06c0.11,0.04,0.22,0.08,0.33,0.11c0.06,0.02,0.11,0.03,0.17,0.05c0.62,0.17,1.26,0.26,1.92,0.26
				c1.92,0,3.72-0.74,5.07-2.09c0.45-0.45,0.45-1.17,0-1.62c-0.45-0.45-1.18-0.45-1.63,0c-1.42,1.42-3.52,1.78-5.27,1.07
				c-0.01,0-0.01-0.01-0.02-0.01c-0.02-0.01-0.05-0.02-0.07-0.03c-1.39-0.6-2.45-1.82-2.81-3.32h10.75c0.63,0,1.15-0.51,1.15-1.15
				c0-1.91-0.75-3.71-2.1-5.06c-1.35-1.35-3.15-2.09-5.07-2.09c-1.91,0-3.72,0.74-5.07,2.09c-1.35,1.35-2.1,3.15-2.1,5.06
				c0,1.91,0.75,3.71,2.1,5.06C177.91,19.44,178.75,19.99,179.67,20.34"/>
			<path class="st3" d="M222.34,8.81c2.29,0,4.21,1.58,4.73,3.71h-9.46C218.13,10.39,220.05,8.81,222.34,8.81 M219.76,20.34
				c0.05,0.02,0.11,0.04,0.16,0.06c0.11,0.04,0.22,0.08,0.33,0.11c0.06,0.02,0.11,0.03,0.17,0.05c0.62,0.17,1.26,0.26,1.92,0.26
				c1.92,0,3.72-0.74,5.07-2.09c0.45-0.45,0.45-1.17,0-1.62c-0.45-0.45-1.18-0.45-1.63,0c-1.42,1.42-3.52,1.78-5.27,1.07
				c-0.01,0-0.01-0.01-0.02-0.01c-0.02-0.01-0.05-0.02-0.07-0.03c-1.39-0.6-2.45-1.82-2.81-3.32h10.75c0.63,0,1.15-0.51,1.15-1.15
				c0-1.91-0.75-3.71-2.1-5.06c-1.35-1.35-3.15-2.09-5.07-2.09c-1.91,0-3.72,0.74-5.07,2.09c-1.35,1.35-2.1,3.15-2.1,5.06
				c0,1.91,0.75,3.71,2.1,5.06C217.99,19.44,218.84,19.99,219.76,20.34"/>
			<path class="st3" d="M233.98,7.95c0-0.63-0.51-1.15-1.15-1.15c-0.63,0-1.15,0.51-1.15,1.15v11.42c0,0.63,0.52,1.15,1.15,1.15
				c0.64,0,1.15-0.51,1.15-1.15v-5.64c0-0.02,0-0.05,0-0.07c0-2.68,2.18-4.86,4.87-4.86c0.64,0,1.15-0.51,1.15-1.15
				c0-0.63-0.51-1.15-1.15-1.15c-1.82,0-3.54,0.67-4.87,1.91V7.95z"/>
			<path class="st3" d="M213.01,19.38v-6.64c0-1.66-0.65-3.23-1.83-4.4c-1.18-1.18-2.75-1.82-4.41-1.82c-1.45,0-2.83,0.49-3.94,1.4
				V1.18c0-0.63-0.51-1.15-1.15-1.15c-0.63,0-1.15,0.51-1.15,1.15v18.19c0,0.63,0.51,1.15,1.15,1.15c0.63,0,1.15-0.51,1.15-1.15
				v-6.6c0-0.01,0-0.02,0-0.03c0-2.17,1.77-3.93,3.94-3.93s3.94,1.76,3.94,3.93v6.64c0,0.63,0.52,1.15,1.15,1.15
				C212.49,20.52,213.01,20.01,213.01,19.38"/>
			<path class="st3" d="M166.55,8.81c2.24,0,4.07,1.82,4.07,4.06c0,2.24-1.82,4.06-4.07,4.06c-2.24,0-4.07-1.82-4.07-4.06
				C162.49,10.63,164.31,8.81,166.55,8.81 M166.55,19.22c1.7,0,3.3-0.66,4.5-1.86c1.2-1.2,1.87-2.79,1.87-4.49
				c0-1.7-0.66-3.29-1.87-4.49c-1.2-1.2-2.8-1.86-4.5-1.86c-1.7,0-3.3,0.66-4.5,1.86c-1.2,1.2-1.87,2.79-1.87,4.49
				c0,1.7,0.66,3.29,1.87,4.49C163.25,18.56,164.85,19.22,166.55,19.22"/>
			<path class="st3" d="M171.62,24.73c1.35-1.35,2.1-3.15,2.1-5.06c0-0.63-0.51-1.15-1.15-1.15c-0.63,0-1.15,0.51-1.15,1.15
				c0,2.68-2.18,4.86-4.87,4.86s-4.87-2.18-4.87-4.86c0-0.63-0.51-1.15-1.15-1.15c-0.64,0-1.15,0.51-1.15,1.15
				c0,1.91,0.75,3.71,2.1,5.06c1.35,1.35,3.15,2.09,5.07,2.09S170.27,26.08,171.62,24.73"/>
			<path class="st3" d="M150.85,18.52c-2.68,0-4.87-2.18-4.87-4.86c0-2.68,2.18-4.86,4.87-4.86s4.87,2.18,4.87,4.86
				C155.72,16.34,153.54,18.52,150.85,18.52 M150.85,6.52c-1.91,0-3.72,0.74-5.07,2.09c-1.35,1.35-2.1,3.15-2.1,5.06
				c0,1.91,0.75,3.71,2.1,5.06c1.35,1.35,3.15,2.09,5.07,2.09c1.91,0,3.72-0.74,5.07-2.09c1.35-1.35,2.1-3.15,2.1-5.06
				c0-1.91-0.75-3.71-2.1-5.06C154.57,7.26,152.77,6.52,150.85,6.52"/>
			<path class="st3" d="M238.07,18.25h0.49c0.17,0,0.31,0.14,0.31,0.31c0,0.17-0.14,0.31-0.31,0.31h-0.49V18.25z M238.62,19.06
				c0.25-0.03,0.44-0.25,0.44-0.5c0-0.28-0.23-0.51-0.51-0.51h-0.58c-0.05,0-0.1,0.04-0.1,0.1v1.56c0,0.05,0.04,0.1,0.1,0.1
				c0.05,0,0.1-0.04,0.1-0.1v-0.64h0.32l0.45,0.69c0.02,0.03,0.05,0.04,0.08,0.04c0.02,0,0.04-0.01,0.05-0.02
				c0.05-0.03,0.06-0.09,0.03-0.14L238.62,19.06z"/>
			<path class="st3" d="M238.4,17.52c-0.77,0-1.41,0.63-1.41,1.4c0,0.77,0.63,1.4,1.41,1.4c0.77,0,1.41-0.63,1.41-1.4
				C239.8,18.15,239.17,17.52,238.4,17.52 M238.4,20.52c-0.88,0-1.6-0.72-1.6-1.6c0-0.88,0.72-1.6,1.6-1.6c0.88,0,1.6,0.72,1.6,1.6
				C240,19.81,239.28,20.52,238.4,20.52"/>
			<path class="st3" d="M145.93,0h-12.83c-0.64,0-1.15,0.51-1.15,1.15c0,0.63,0.51,1.15,1.15,1.15h5.26v17.08
				c0,0.63,0.51,1.15,1.15,1.15c0.64,0,1.15-0.51,1.15-1.15V2.3h5.26c0.63,0,1.15-0.51,1.15-1.15C147.08,0.52,146.57,0,145.93,0"/>
		</g>
		<path class="st3" d="M112.58,4.36c0.88,0,1.6-0.72,1.6-1.6c0-0.88-0.72-1.6-1.6-1.6c-0.88,0-1.6,0.71-1.6,1.6
			C110.98,3.64,111.69,4.36,112.58,4.36"/>
	</g>
	<g>
	</g>
	<g>
	</g>
	<g>
	</g>
	<g>
	</g>
	<g>
	</g>
	<g>
	</g>
</g>
</svg>
